<svg width="18" height="11" viewBox="0 0 18 11" fill="none" xmlns="http://www.w3.org/2000/svg">
<path fill-rule="evenodd" clip-rule="evenodd" d="M16.6667 0.265137H15.6667C15.1144 0.265137 14.6667 0.702677 14.6667 1.24241V9.71211C14.6667 10.2518 15.1144 10.6894 15.6667 10.6894H16.6667C17.2189 10.6894 17.6667 10.2518 17.6667 9.71211V1.24241C17.6667 0.702677 17.2189 0.265137 16.6667 0.265137ZM11 2.54544H12C12.5523 2.54544 13 2.98298 13 3.52271V9.71211C13 10.2518 12.5523 10.6894 12 10.6894H11C10.4477 10.6894 9.99999 10.2518 9.99999 9.71211V3.52271C9.99999 2.98298 10.4477 2.54544 11 2.54544ZM7.33332 4.82574H6.33332C5.78104 4.82574 5.33332 5.26328 5.33332 5.80302V9.71211C5.33332 10.2518 5.78104 10.6894 6.33332 10.6894H7.33332C7.88561 10.6894 8.33332 10.2518 8.33332 9.71211V5.80302C8.33332 5.26328 7.88561 4.82574 7.33332 4.82574ZM2.66666 6.78029H1.66666C1.11437 6.78029 0.666656 7.21783 0.666656 7.75756V9.71211C0.666656 10.2518 1.11437 10.6894 1.66666 10.6894H2.66666C3.21894 10.6894 3.66666 10.2518 3.66666 9.71211V7.75756C3.66666 7.21783 3.21894 6.78029 2.66666 6.78029Z" fill="black"/>
</svg>
