<svg width="34" height="34" viewBox="0 0 34 34" fill="none" xmlns="http://www.w3.org/2000/svg">
<path d="M30.8911 14.2255H29.75V14.1667H17V19.8333H25.0063C23.8383 23.1321 20.6996 25.5 17 25.5C12.3059 25.5 8.5 21.6941 8.5 17C8.5 12.3059 12.3059 8.50001 17 8.50001C19.1668 8.50001 21.1381 9.31743 22.639 10.6526L26.6461 6.64559C24.1159 4.28755 20.7315 2.83334 17 2.83334C9.17646 2.83334 2.83334 9.17647 2.83334 17C2.83334 24.8236 9.17646 31.1667 17 31.1667C24.8235 31.1667 31.1667 24.8236 31.1667 17C31.1667 16.0501 31.0689 15.1229 30.8911 14.2255Z" fill="#FFC107"/>
<path d="M4.46675 10.4061L9.12121 13.8196C10.3806 10.7015 13.4307 8.50001 17 8.50001C19.1668 8.50001 21.1381 9.31743 22.639 10.6526L26.6461 6.64559C24.1159 4.28755 20.7315 2.83334 17 2.83334C11.5586 2.83334 6.83967 5.90539 4.46675 10.4061Z" fill="#FF3D00"/>
<path d="M17 31.1667C20.6592 31.1667 23.9842 29.7663 26.498 27.489L22.1135 23.7787C20.6433 24.8968 18.8469 25.5015 17 25.5C13.3152 25.5 10.1865 23.1505 9.00787 19.8716L4.38812 23.431C6.73271 28.0188 11.4941 31.1667 17 31.1667Z" fill="#4CAF50"/>
<path d="M30.8911 14.2254H29.75V14.1667H17V19.8333H25.0063C24.4476 21.4033 23.4411 22.7752 22.1113 23.7794L22.1135 23.778L26.498 27.4883C26.1878 27.7702 31.1667 24.0833 31.1667 17C31.1667 16.0501 31.0689 15.1229 30.8911 14.2254Z" fill="#1976D2"/>
</svg>
