<svg width="16" height="14" viewBox="0 0 16 14" fill="none" xmlns="http://www.w3.org/2000/svg">
<path d="M14.5 13H1.5C0.67 13 0 12.33 0 11.5V2.5C0 1.67 0.67 1 1.5 1H14.5C15.33 1 16 1.67 16 2.5V11.5C16 12.33 15.33 13 14.5 13ZM1.5 2C1.22 2 1 2.22 1 2.5V11.5C1 11.78 1.22 12 1.5 12H14.5C14.78 12 15 11.78 15 11.5V2.5C15 2.22 14.78 2 14.5 2H1.5Z" fill="#979797"/>
<path d="M8 8.96C7.3 8.96 6.66 8.68 6.18 8.17L0.93 2.59C0.74 2.39 0.75 2.07 0.95 1.88C1.15 1.69 1.47 1.7 1.66 1.9L6.91 7.48C7.48 8.09 8.52 8.09 9.09 7.48L14.34 1.91C14.53 1.71 14.85 1.7 15.05 1.89C15.25 2.08 15.26 2.4 15.07 2.6L9.82 8.18C9.34 8.69 8.7 8.97 8 8.97V8.96Z" fill="#979797"/>
</svg>
