<svg width="30" height="30" viewBox="0 0 30 30" fill="none" xmlns="http://www.w3.org/2000/svg">
<path d="M19.8125 10.175C20.3 10.175 20.775 10.2125 21.2375 10.275C20.3875 6.5625 16.4875 3.75 11.8 3.75C6.4875 3.75 2.175 7.35 2.175 11.7875C2.175 14.35 3.6125 16.6125 5.85 18.0875L4.5875 20.625L8.0375 19.1375C8.775 19.4 9.55 19.6125 10.375 19.725C10.2625 19.2375 10.2 18.7375 10.2 18.2125C10.1875 13.7875 14.5 10.175 19.8125 10.175ZM15 7.3625C15.1576 7.3625 15.3136 7.39354 15.4592 7.45384C15.6048 7.51415 15.7371 7.60254 15.8485 7.71397C15.96 7.8254 16.0483 7.95769 16.1087 8.10328C16.169 8.24887 16.2 8.40491 16.2 8.5625C16.2 8.72009 16.169 8.87613 16.1087 9.02172C16.0483 9.16731 15.96 9.2996 15.8485 9.41103C15.7371 9.52246 15.6048 9.61085 15.4592 9.67115C15.3136 9.73146 15.1576 9.7625 15 9.7625C14.6817 9.7625 14.3765 9.63607 14.1515 9.41103C13.9264 9.18598 13.8 8.88076 13.8 8.5625C13.8 8.24424 13.9264 7.93902 14.1515 7.71397C14.3765 7.48893 14.6817 7.3625 15 7.3625ZM8.5875 9.775C8.26924 9.775 7.96402 9.64857 7.73897 9.42353C7.51393 9.19848 7.3875 8.89326 7.3875 8.575C7.3875 8.25674 7.51393 7.95152 7.73897 7.72647C7.96402 7.50143 8.26924 7.375 8.5875 7.375C8.90576 7.375 9.21098 7.50143 9.43603 7.72647C9.66107 7.95152 9.7875 8.25674 9.7875 8.575C9.7875 8.89326 9.66107 9.19848 9.43603 9.42353C9.21098 9.64857 8.90576 9.775 8.5875 9.775Z" fill="#8BE11E"/>
<path d="M27.825 18.2125C27.825 14.6625 24.2375 11.7875 19.8125 11.7875C15.3875 11.7875 11.8 14.6625 11.8 18.2125C11.8 21.7625 15.3875 24.6375 19.8125 24.6375C20.5375 24.6375 21.2375 24.5375 21.9 24.3875L26.225 26.25L24.725 23.25C26.6 22.075 27.825 20.275 27.825 18.2125ZM17.4 17.8125C17.1627 17.8125 16.9307 17.7421 16.7333 17.6103C16.536 17.4784 16.3822 17.291 16.2913 17.0717C16.2005 16.8525 16.1768 16.6112 16.2231 16.3784C16.2694 16.1456 16.3836 15.9318 16.5515 15.764C16.7193 15.5962 16.9331 15.4819 17.1659 15.4356C17.3987 15.3893 17.6399 15.413 17.8592 15.5038C18.0785 15.5947 18.2659 15.7485 18.3978 15.9458C18.5296 16.1432 18.6 16.3752 18.6 16.6125C18.6125 17.275 18.0625 17.8125 17.4 17.8125ZM22.2125 17.8125C21.8942 17.8125 21.589 17.6861 21.364 17.461C21.1389 17.236 21.0125 16.9308 21.0125 16.6125C21.0125 16.2942 21.1389 15.989 21.364 15.764C21.589 15.5389 21.8942 15.4125 22.2125 15.4125C22.5308 15.4125 22.836 15.5389 23.061 15.764C23.2861 15.989 23.4125 16.2942 23.4125 16.6125C23.4125 16.9308 23.2861 17.236 23.061 17.461C22.836 17.6861 22.5308 17.8125 22.2125 17.8125Z" fill="#8BE11E"/>
</svg>
