<svg width="25" height="25" viewBox="0 0 25 25" fill="none" xmlns="http://www.w3.org/2000/svg">
<path d="M17.5208 21.6333L3.90938 4.13333C3.83763 4.04095 3.79326 3.93028 3.78129 3.81393C3.76933 3.69757 3.79026 3.58019 3.8417 3.47514C3.89314 3.37009 3.97303 3.28158 4.07228 3.21968C4.17153 3.15778 4.28616 3.12498 4.40313 3.125H6.98646C7.08156 3.12514 7.17537 3.14698 7.26076 3.18886C7.34614 3.23074 7.42084 3.29155 7.47917 3.36667L21.0906 20.8667C21.1624 20.9591 21.2067 21.0697 21.2187 21.1861C21.2307 21.3024 21.2097 21.4198 21.1583 21.5249C21.1069 21.6299 21.027 21.7184 20.9277 21.7803C20.8285 21.8422 20.7138 21.875 20.5969 21.875H18.0135C17.9184 21.8749 17.8246 21.853 17.7392 21.8111C17.6539 21.7693 17.5792 21.7084 17.5208 21.6333Z" stroke="black"/>
<path d="M20.8333 3.125L4.16666 21.875" stroke="black" stroke-linecap="round"/>
</svg>
