<svg width="16" height="12" viewBox="0 0 16 12" fill="none" xmlns="http://www.w3.org/2000/svg">
<path fill-rule="evenodd" clip-rule="evenodd" d="M8.33033 3.16237C10.5462 3.16246 12.6774 3.99455 14.2833 5.48665C14.4043 5.60184 14.5976 5.60039 14.7167 5.48339L15.8727 4.34324C15.933 4.2839 15.9666 4.20351 15.9661 4.11988C15.9656 4.03624 15.931 3.95625 15.87 3.8976C11.6549 -0.0501367 5.0051 -0.0501367 0.789998 3.8976C0.728939 3.95621 0.694296 4.03618 0.693733 4.11981C0.69317 4.20345 0.726734 4.28385 0.786998 4.34324L1.94333 5.48339C2.06236 5.60057 2.25581 5.60202 2.37666 5.48665C3.98282 3.99445 6.11422 3.16236 8.33033 3.16237ZM8.33033 6.87177C9.54782 6.8717 10.7219 7.31394 11.6243 8.11258C11.7464 8.22592 11.9387 8.22347 12.0577 8.10704L13.2123 6.96689C13.2731 6.90709 13.3069 6.82596 13.306 6.74165C13.3051 6.65735 13.2697 6.57691 13.2077 6.51832C10.4595 4.02004 6.20353 4.02004 3.45533 6.51832C3.39325 6.57691 3.35784 6.65739 3.35702 6.74172C3.35621 6.82605 3.39006 6.90717 3.451 6.96689L4.60533 8.10704C4.72432 8.22347 4.9166 8.22592 5.03867 8.11258C5.94054 7.31447 7.11365 6.87226 8.33033 6.87177ZM10.6433 9.36755C10.6451 9.45209 10.6111 9.53359 10.5493 9.59282L8.552 11.5627C8.49345 11.6206 8.41362 11.6532 8.33033 11.6532C8.24704 11.6532 8.16722 11.6206 8.10867 11.5627L6.111 9.59282C6.04929 9.53355 6.01534 9.45202 6.01717 9.36748C6.019 9.28294 6.05644 9.20288 6.12067 9.14621C7.39624 8.09185 9.26443 8.09185 10.54 9.14621C10.6042 9.20292 10.6416 9.28301 10.6433 9.36755Z" fill="black"/>
</svg>
